HIERARCHY
ROOT Hips
{
	OFFSET 0.000000 0.000000 0.000000
	CHANNELS 6 Xposition Yposition Zposition Zrotation Yrotation Xrotation 
	JOINT Spine1
	{
		OFFSET -0.013727 5.003762 -0.053727
		CHANNELS 3 Zrotation Yrotation Xrotation
		JOINT Spine2
		{
			OFFSET -0.000000 7.125302 -0.029825
			CHANNELS 3 Zrotation Yrotation Xrotation
			JOINT Chest
			{
				OFFSET -0.000001 7.550064 -0.815971
				CHANNELS 3 Zrotation Yrotation Xrotation
				JOINT Neck1
				{
					OFFSET -0.181677 26.311296 -0.553348
					CHANNELS 3 Zrotation Yrotation Xrotation
					JOINT Neck2
					{
						OFFSET -0.000003 7.709399 2.302586
						CHANNELS 3 Zrotation Yrotation Xrotation
						JOINT Head
						{
							OFFSET -0.000005 6.128913 1.953709
							CHANNELS 3 Zrotation Yrotation Xrotation
							JOINT HeadEnd
							{
								OFFSET 0.003598 16.065401 -1.835379
								CHANNELS 3 Zrotation Yrotation Xrotation
								End Site
								{
									OFFSET 0.000000 0.000000 0.000000
								}
							}
							JOINT Jaw
							{
								OFFSET 0.002637 0.475591 3.094941
								CHANNELS 3 Zrotation Yrotation Xrotation
								End Site
								{
									OFFSET 0.000000 0.000000 0.000000
								}
							}
							JOINT LeftEye
							{
								OFFSET 3.206380 5.380208 7.586883
								CHANNELS 3 Zrotation Yrotation Xrotation
								End Site
								{
									OFFSET 0.000000 0.000000 0.000000
								}
							}
							JOINT RightEye
							{
								OFFSET -3.222440 5.361866 7.558233
								CHANNELS 3 Zrotation Yrotation Xrotation
								End Site
								{
									OFFSET 0.000000 0.000000 0.000000
								}
							}
						}
					}
				}
				JOINT LeftShoulder
				{
					OFFSET 1.621652 23.237164 5.113413
					CHANNELS 3 Zrotation Yrotation Xrotation
					JOINT LeftArm
					{
						OFFSET 14.919845 -0.000000 -5.502326
						CHANNELS 3 Zrotation Yrotation Xrotation
						JOINT LeftForeArm
						{
							OFFSET 28.739309 0.000004 -0.002587
							CHANNELS 3 Zrotation Yrotation Xrotation
							JOINT LeftHand
							{
								OFFSET 27.093979 -0.000003 0.002609
								CHANNELS 3 Zrotation Yrotation Xrotation
								JOINT LeftHandThumb1
								{
									OFFSET 2.276479 -1.392046 3.191413
									CHANNELS 3 Zrotation Yrotation Xrotation
									JOINT LeftHandThumb2
									{
										OFFSET 4.012842 -1.828126 1.641655
										CHANNELS 3 Zrotation Yrotation Xrotation
										JOINT LeftHandThumb3
										{
											OFFSET 2.798517 0.000002 -0.000003
											CHANNELS 3 Zrotation Yrotation Xrotation
											JOINT LeftHandThumbEnd
											{
												OFFSET 3.180791 -0.000002 0.000002
												CHANNELS 3 Zrotation Yrotation Xrotation
												End Site
												{
													OFFSET 0.000000 0.000000 0.000000
												}
											}
										}
									}
								}
								JOINT LeftHandIndex1
								{
									OFFSET 3.247553 -0.531999 2.296169
									CHANNELS 3 Zrotation Yrotation Xrotation
									JOINT LeftHandIndex2
									{
										OFFSET 6.364579 0.012062 0.178600
										CHANNELS 3 Zrotation Yrotation Xrotation
										JOINT LeftHandIndex3
										{
											OFFSET 3.662366 0.000001 0.000000
											CHANNELS 3 Zrotation Yrotation Xrotation
											JOINT LeftHandIndex4
											{
												OFFSET 2.329241 0.000000 0.000003
												CHANNELS 3 Zrotation Yrotation Xrotation
												JOINT LeftHandIndexEnd
												{
													OFFSET 2.759619 -0.180538 -0.113024
													CHANNELS 3 Zrotation Yrotation Xrotation
													End Site
													{
														OFFSET 0.000000 0.000000 0.000000
													}
												}
											}
										}
									}
								}
								JOINT LeftHandMiddle1
								{
									OFFSET 3.163498 0.240981 1.000332
									CHANNELS 3 Zrotation Yrotation Xrotation
									JOINT LeftHandMiddle2
									{
										OFFSET 6.190778 -0.259276 -1.002549
										CHANNELS 3 Zrotation Yrotation Xrotation
										JOINT LeftHandMiddle3
										{
											OFFSET 4.356522 -0.000006 0.000000
											CHANNELS 3 Zrotation Yrotation Xrotation
											JOINT LeftHandMiddle4
											{
												OFFSET 2.996876 -0.000005 0.000001
												CHANNELS 3 Zrotation Yrotation Xrotation
												JOINT LeftHandMiddleEnd
												{
													OFFSET 2.304294 -0.294571 -0.031739
													CHANNELS 3 Zrotation Yrotation Xrotation
													End Site
													{
														OFFSET 0.000000 0.000000 0.000000
													}
												}
											}
										}
									}
								}
								JOINT LeftHandRing1
								{
									OFFSET 2.882641 -0.053650 -0.322543
									CHANNELS 3 Zrotation Yrotation Xrotation
									JOINT LeftHandRing2
									{
										OFFSET 5.854543 -0.486203 -1.373841
										CHANNELS 3 Zrotation Yrotation Xrotation
										JOINT LeftHandRing3
										{
											OFFSET 4.350579 -0.000001 0.000003
											CHANNELS 3 Zrotation Yrotation Xrotation
											JOINT LeftHandRing4
											{
												OFFSET 2.651324 0.000008 0.000004
												CHANNELS 3 Zrotation Yrotation Xrotation
												JOINT LeftHandRingEnd
												{
													OFFSET 1.936111 0.077684 -0.000070
													CHANNELS 3 Zrotation Yrotation Xrotation
													End Site
													{
														OFFSET 0.000000 0.000000 0.000000
													}
												}
											}
										}
									}
								}
								JOINT LeftHandPinky1
								{
									OFFSET 2.865500 -0.310004 -1.600378
									CHANNELS 3 Zrotation Yrotation Xrotation
									JOINT LeftHandPinky2
									{
										OFFSET 5.087852 -1.331142 -1.771231
										CHANNELS 3 Zrotation Yrotation Xrotation
										JOINT LeftHandPinky3
										{
											OFFSET 3.070976 0.000003 0.000001
											CHANNELS 3 Zrotation Yrotation Xrotation
											JOINT LeftHandPinky4
											{
												OFFSET 1.549667 -0.000000 0.000000
												CHANNELS 3 Zrotation Yrotation Xrotation
												JOINT LeftHandPinkyEnd
												{
													OFFSET 1.944895 -0.157800 0.057219
													CHANNELS 3 Zrotation Yrotation Xrotation
													End Site
													{
														OFFSET 0.000000 0.000000 0.000000
													}
												}
											}
										}
									}
								}
							}
						}
					}
				}
				JOINT RightShoulder
				{
					OFFSET -1.380118 23.180305 5.214158
					CHANNELS 3 Zrotation Yrotation Xrotation
					JOINT RightArm
					{
						OFFSET -15.037197 0.000012 -5.545604
						CHANNELS 3 Zrotation Yrotation Xrotation
						JOINT RightForeArm
						{
							OFFSET -28.736639 0.000004 -0.002596
							CHANNELS 3 Zrotation Yrotation Xrotation
							JOINT RightHand
							{
								OFFSET -27.133617 -0.000000 0.002613
								CHANNELS 3 Zrotation Yrotation Xrotation
								JOINT RightHandThumb1
								{
									OFFSET -2.274036 -1.383990 3.163128
									CHANNELS 3 Zrotation Yrotation Xrotation
									JOINT RightHandThumb2
									{
										OFFSET -4.011427 -1.827468 1.640914
										CHANNELS 3 Zrotation Yrotation Xrotation
										JOINT RightHandThumb3
										{
											OFFSET -2.794935 -0.000003 -0.000003
											CHANNELS 3 Zrotation Yrotation Xrotation
											JOINT RightHandThumbEnd
											{
												OFFSET -3.183854 0.000003 -0.000000
												CHANNELS 3 Zrotation Yrotation Xrotation
												End Site
												{
													OFFSET 0.000000 0.000000 0.000000
												}
											}
										}
									}
								}
								JOINT RightHandIndex1
								{
									OFFSET -3.253269 -0.520060 2.282866
									CHANNELS 3 Zrotation Yrotation Xrotation
									JOINT RightHandIndex2
									{
										OFFSET -6.341918 0.012473 0.178265
										CHANNELS 3 Zrotation Yrotation Xrotation
										JOINT RightHandIndex3
										{
											OFFSET -3.654875 -0.000009 -0.000001
											CHANNELS 3 Zrotation Yrotation Xrotation
											JOINT RightHandIndex4
											{
												OFFSET -2.327586 0.000000 0.000000
												CHANNELS 3 Zrotation Yrotation Xrotation
												JOINT RightHandIndexEnd
												{
													OFFSET -2.761789 -0.180657 -0.113079
													CHANNELS 3 Zrotation Yrotation Xrotation
													End Site
													{
														OFFSET 0.000000 0.000000 0.000000
													}
												}
											}
										}
									}
								}
								JOINT RightHandMiddle1
								{
									OFFSET -3.168105 0.246593 1.001030
									CHANNELS 3 Zrotation Yrotation Xrotation
									JOINT RightHandMiddle2
									{
										OFFSET -6.180830 -0.258836 -1.000896
										CHANNELS 3 Zrotation Yrotation Xrotation
										JOINT RightHandMiddle3
										{
											OFFSET -4.348906 -0.000000 -0.000000
											CHANNELS 3 Zrotation Yrotation Xrotation
											JOINT RightHandMiddle4
											{
												OFFSET -3.000243 -0.000004 -0.000002
												CHANNELS 3 Zrotation Yrotation Xrotation
												JOINT RightHandMiddleEnd
												{
													OFFSET -2.302518 -0.294371 -0.031706
													CHANNELS 3 Zrotation Yrotation Xrotation
													End Site
													{
														OFFSET 0.000000 0.000000 0.000000
													}
												}
											}
										}
									}
								}
								JOINT RightHandRing1
								{
									OFFSET -2.885692 -0.067952 -0.308858
									CHANNELS 3 Zrotation Yrotation Xrotation
									JOINT RightHandRing2
									{
										OFFSET -5.854198 -0.486132 -1.373731
										CHANNELS 3 Zrotation Yrotation Xrotation
										JOINT RightHandRing3
										{
											OFFSET -4.338814 -0.000004 -0.000000
											CHANNELS 3 Zrotation Yrotation Xrotation
											JOINT RightHandRing4
											{
												OFFSET -2.654905 -0.000005 0.000004
												CHANNELS 3 Zrotation Yrotation Xrotation
												JOINT RightHandRingEnd
												{
													OFFSET -1.933571 0.077524 -0.000052
													CHANNELS 3 Zrotation Yrotation Xrotation
													End Site
													{
														OFFSET 0.000000 0.000000 0.000000
													}
												}
											}
										}
									}
								}
								JOINT RightHandPinky1
								{
									OFFSET -2.866429 -0.342798 -1.584145
									CHANNELS 3 Zrotation Yrotation Xrotation
									JOINT RightHandPinky2
									{
										OFFSET -5.091369 -1.332054 -1.772385
										CHANNELS 3 Zrotation Yrotation Xrotation
										JOINT RightHandPinky3
										{
											OFFSET -3.062666 -0.000006 0.000001
											CHANNELS 3 Zrotation Yrotation Xrotation
											JOINT RightHandPinky4
											{
												OFFSET -1.546527 0.000005 -0.000002
												CHANNELS 3 Zrotation Yrotation Xrotation
												JOINT RightHandPinkyEnd
												{
													OFFSET -1.945122 -0.157721 0.057211
													CHANNELS 3 Zrotation Yrotation Xrotation
													End Site
													{
														OFFSET 0.000000 0.000000 0.000000
													}
												}
											}
										}
									}
								}
							}
						}
					}
				}
			}
		}
	}
	JOINT LeftLeg
	{
		OFFSET 10.043214 -8.434526 2.595655
		CHANNELS 3 Zrotation Yrotation Xrotation
		JOINT LeftShin
		{
			OFFSET -0.000001 -43.221752 -0.802913
			CHANNELS 3 Zrotation Yrotation Xrotation
			JOINT LeftFoot
			{
				OFFSET 0.000001 -42.155094 -3.481523
				CHANNELS 3 Zrotation Yrotation Xrotation
				JOINT LeftToeBase
				{
					OFFSET 0.000000 -5.059474 13.231529
					CHANNELS 3 Zrotation Yrotation Xrotation
					JOINT LeftToeEnd
					{
						OFFSET -0.009607 -1.647615 6.513017
						CHANNELS 3 Zrotation Yrotation Xrotation
						End Site
						{
							OFFSET 0.000000 0.000000 0.000000
						}
					}
				}
			}
		}
	}
	JOINT RightLeg
	{
		OFFSET -10.047277 -8.295259 2.620317
		CHANNELS 3 Zrotation Yrotation Xrotation
		JOINT RightShin
		{
			OFFSET 0.000000 -43.362209 -0.805556
			CHANNELS 3 Zrotation Yrotation Xrotation
			JOINT RightFoot
			{
				OFFSET 0.000002 -42.117393 -3.478399
				CHANNELS 3 Zrotation Yrotation Xrotation
				JOINT RightToeBase
				{
					OFFSET -0.000001 -5.079609 13.284196
					CHANNELS 3 Zrotation Yrotation Xrotation
					JOINT RightToeEnd
					{
						OFFSET 0.009532 -1.634383 6.460591
						CHANNELS 3 Zrotation Yrotation Xrotation
						End Site
						{
							OFFSET 0.000000 0.000000 0.000000
						}
					}
				}
			}
		}
	}
}
MOTION
Frames: 5
Frame Time: 0.033333
2.242745 91.438766 -1.264742 -0.648231 -4.056176 -1.653160 0.508615 0.824913 1.777617 -0.108490 1.938942 -3.771633 1.907379 0.500622 11.573526 -7.620777 6.678068 8.966614 1.332193 7.075000 -3.526252 -2.055856 7.504452 -13.148142 0.000077 -0.000021 0.000006 0.007253 -0.029442 0.110212 0.692700 -3.765663 -10.616817 -0.686389 3.703198 -10.596885 -9.035767 -7.138380 6.480324 -27.587410 -37.113567 -40.604782 178.226974 -64.044662 -177.824432 9.021606 -9.454920 -28.430664 -5.882103 9.861280 0.702590 -10.936860 -0.360575 7.156197 -0.000000 8.774812 -0.000001 -16.831575 18.235220 6.018447 -1.844030 2.498502 -2.507275 -10.163590 4.678940 4.621105 -20.975996 -0.000004 0.000004 -21.226254 2.451694 -3.593991 0.000001 -0.000006 -0.000000 -1.362681 2.240797 -0.746323 -21.334892 0.584907 3.008322 -13.821197 -0.000003 0.000003 -23.887133 -0.249077 -0.839479 -61.261909 2.562882 -1.611305 -0.294025 1.679687 0.833255 -14.218194 0.093214 1.300580 -34.212006 -0.287563 0.967173 -20.033182 0.964536 1.212843 -0.000001 -0.000000 -0.000001 -3.440385 0.788233 0.501655 -15.928167 -3.167307 2.999705 -6.338819 -0.000001 0.000001 -18.123413 3.648176 -4.905660 -0.000004 0.000000 -0.000003 4.175613 22.563787 8.293450 50.578251 57.984711 -3.602679 179.854568 55.610996 -179.925034 -2.296598 6.445256 -18.089331 2.243540 -5.255032 -3.180156 14.282873 -0.826594 6.952496 -0.000003 -12.690587 0.000001 15.868412 -17.657179 2.869745 1.665663 -1.955920 -2.878294 4.727793 -4.170582 4.993918 11.020512 0.000003 -0.000001 12.109029 -3.735710 -2.866779 -0.000001 0.000000 0.000001 1.291984 -1.928547 -1.498088 14.800111 0.567468 3.865603 14.242554 -1.341734 -6.660650 19.631939 0.143928 -0.648242 49.545753 -1.130351 -5.886885 0.353028 -1.511151 -0.031938 20.222769 3.684307 2.316628 18.787245 0.000005 -0.000000 10.751612 -0.479868 1.397903 0.000000 0.000003 0.000000 3.273804 0.305947 -0.580113 21.486788 11.830360 2.266130 8.162917 0.000001 -0.000002 18.399048 -3.798976 -4.940567 0.000003 -0.000001 -0.000001 20.687084 16.039072 -20.714569 -0.504287 -1.025779 32.721531 -19.060467 0.003241 -4.785267 1.647976 -2.031785 -1.442549 0.000000 -0.000000 0.000002 -22.432400 -5.681144 -7.545863 0.333408 0.988360 26.947824 24.538368 5.582675 -12.563441 -1.439994 1.093528 -2.808535 0.000000 0.000000 -0.000001 
2.125609 91.414467 -1.511046 -0.557771 -4.424311 -1.526705 0.583241 0.773106 1.818371 -0.099567 1.860716 -3.742492 1.944876 0.364631 11.634130 -7.499658 6.613340 9.034632 1.323367 7.099377 -3.516815 -2.133581 7.573424 -13.097366 0.000077 -0.000022 0.000006 0.003932 -0.029832 0.106740 0.695068 -3.764565 -10.603415 -0.691501 3.692648 -10.586032 -9.216775 -7.391328 6.458985 -26.947264 -36.685352 -41.866100 178.319870 -64.683418 -177.870895 9.190166 -9.556560 -29.202862 -5.882102 9.861278 0.702590 -10.936860 -0.360575 7.156196 0.000001 8.774813 -0.000001 -16.875626 18.270226 6.020350 -1.844032 2.498502 -2.507276 -10.163592 4.678939 4.621104 -20.976002 -0.000003 0.000003 -21.226250 2.451694 -3.593992 0.000001 -0.000006 -0.000000 -1.362680 2.240796 -0.746323 -21.334896 0.584910 3.008321 -13.821199 -0.000002 0.000002 -23.887133 -0.249076 -0.839480 -61.297592 2.568676 -1.613155 -0.294025 1.679686 0.833255 -14.218194 0.093215 1.300580 -34.212009 -0.287561 0.967169 -20.033180 0.964535 1.212841 -0.000000 -0.000000 -0.000000 -3.440386 0.788233 0.501655 -15.928167 -3.167305 2.999704 -6.338820 -0.000001 0.000001 -18.123415 3.648177 -4.905661 -0.000004 0.000000 -0.000002 4.319890 22.447639 8.253882 50.322159 58.018753 -3.578591 179.766144 55.527073 -179.977219 -2.190896 6.238466 -17.779272 2.243540 -5.255033 -3.180157 14.282875 -0.826594 6.952493 -0.000001 -12.690592 0.000001 15.843195 -17.647223 2.843040 1.665666 -1.955919 -2.878300 4.727795 -4.170582 4.993918 11.020513 0.000002 -0.000001 12.109035 -3.735710 -2.866780 -0.000001 -0.000000 0.000001 1.291985 -1.928548 -1.498090 14.800114 0.567467 3.865602 14.242554 -1.341734 -6.660650 19.631939 0.143927 -0.648248 49.636593 -1.084669 -5.912665 0.353028 -1.511149 -0.031937 20.222771 3.684303 2.316626 18.787249 0.000006 -0.000002 10.751612 -0.479866 1.397902 0.000000 0.000001 0.000001 3.273804 0.305947 -0.580111 21.486790 11.830360 2.266126 8.162917 0.000001 -0.000003 18.399054 -3.798979 -4.940571 0.000002 0.000000 -0.000001 20.666304 16.804501 -20.792259 -0.517283 -1.017580 32.523369 -19.206081 -0.154353 -4.319198 1.649388 -2.026090 -1.359311 -0.000000 -0.000000 0.000002 -22.415112 -5.424054 -8.254345 0.331841 0.964937 27.320007 24.421764 5.736450 -12.693845 -1.435826 1.115376 -2.703250 -0.000000 0.000000 -0.000001 
2.037372 91.470207 -1.740569 -0.505285 -4.600234 -1.397662 0.660695 0.740059 1.826576 -0.085231 1.789184 -3.713696 2.021031 0.235840 11.631874 -7.420791 6.544145 9.064463 1.296490 7.066632 -3.515972 -2.222387 7.611758 -12.958451 0.000077 -0.000023 0.000006 0.002694 -0.030073 0.102683 0.700157 -3.753329 -10.589319 -0.699784 3.696126 -10.576273 -9.370490 -7.691611 6.435390 -26.448076 -36.348286 -43.049778 178.746536 -65.284096 -178.176376 9.490238 -9.631339 -30.050358 -5.882100 9.861279 0.702590 -10.936857 -0.360576 7.156196 0.000001 8.774814 -0.000001 -16.882767 18.298393 6.008374 -1.844031 2.498502 -2.507275 -10.163589 4.678938 4.621103 -20.975996 -0.000005 0.000002 -21.226254 2.451691 -3.593993 0.000001 -0.000006 -0.000000 -1.362679 2.240795 -0.746323 -21.334890 0.584907 3.008320 -13.821197 -0.000004 0.000003 -23.887131 -0.249080 -0.839480 -61.250401 2.592656 -1.587800 -0.294023 1.679686 0.833255 -14.218192 0.093213 1.300579 -34.211998 -0.287565 0.967171 -20.033176 0.964534 1.212843 -0.000000 0.000000 -0.000000 -3.440384 0.788231 0.501656 -15.928165 -3.167308 2.999705 -6.338815 -0.000002 0.000001 -18.123411 3.648175 -4.905661 -0.000005 -0.000000 -0.000002 4.498192 22.343126 8.223413 49.905998 58.038868 -3.748579 179.690720 55.587620 179.956467 -2.024930 6.079926 -17.905602 2.243539 -5.255033 -3.180155 14.282875 -0.826592 6.952497 -0.000001 -12.690591 0.000001 15.846526 -17.693878 2.833334 1.665666 -1.955920 -2.878298 4.727793 -4.170583 4.993921 11.020511 0.000004 -0.000001 12.109030 -3.735708 -2.866780 -0.000001 0.000000 0.000001 1.291984 -1.928547 -1.498087 14.800113 0.567469 3.865602 14.242551 -1.341734 -6.660650 19.631937 0.143925 -0.648242 49.765587 -1.058804 -5.959260 0.353030 -1.511150 -0.031940 20.222765 3.684309 2.316630 18.787245 0.000008 0.000001 10.751609 -0.479866 1.397904 0.000000 0.000001 0.000000 3.273804 0.305948 -0.580109 21.486792 11.830365 2.266132 8.162914 0.000001 0.000000 18.399050 -3.798979 -4.940565 0.000003 0.000000 -0.000000 20.628433 17.330584 -20.812651 -0.522800 -1.014440 32.070793 -19.289312 -0.227974 -3.763639 1.650903 -2.008638 -1.370896 0.000000 0.000000 0.000002 -22.295660 -5.229674 -8.618087 0.295906 0.951845 27.243418 24.295744 5.688589 -12.786539 -1.434464 1.117308 -2.689785 0.000000 0.000000 -0.000001 
1.886618 91.590996 -1.934736 -0.490368 -4.631104 -1.296981 0.736483 0.726058 1.838255 -0.068717 1.693243 -3.688001 2.111785 0.110463 11.581508 -7.350215 6.490202 9.034641 1.257353 6.996803 -3.515182 -2.322845 7.659212 -12.796614 0.000077 -0.000023 0.000006 0.001980 -0.038683 0.094299 0.701651 -3.757613 -10.579242 -0.703447 3.676544 -10.563504 -9.424780 -7.948137 6.436572 -26.112465 -36.086975 -43.944164 179.071503 -65.737381 -178.423035 9.822018 -9.719416 -30.783100 -5.882099 9.861278 0.702590 -10.936858 -0.360577 7.156197 0.000001 8.774812 -0.000001 -16.825951 18.328825 5.997778 -1.844031 2.498502 -2.507276 -10.163589 4.678939 4.621104 -20.975994 -0.000005 0.000001 -21.226255 2.451691 -3.593992 0.000001 -0.000007 -0.000000 -1.362679 2.240796 -0.746323 -21.334892 0.584906 3.008322 -13.821195 -0.000004 0.000003 -23.887131 -0.249079 -0.839480 -61.093472 2.599779 -1.528723 -0.294024 1.679685 0.833255 -14.218192 0.093214 1.300579 -34.212006 -0.287565 0.967171 -20.033178 0.964534 1.212842 -0.000000 -0.000000 -0.000000 -3.440384 0.788232 0.501655 -15.928167 -3.167307 2.999703 -6.338817 -0.000002 0.000002 -18.123413 3.648176 -4.905661 -0.000006 0.000001 -0.000002 4.655125 22.279295 8.189699 49.519508 58.069622 -3.922168 179.689133 55.646694 179.939346 -1.916614 5.957961 -18.314194 2.243538 -5.255032 -3.180155 14.282875 -0.826592 6.952497 -0.000002 -12.690590 -0.000001 15.952818 -17.753242 2.783057 1.665663 -1.955919 -2.878296 4.727793 -4.170582 4.993918 11.020512 0.000005 0.000000 12.109031 -3.735709 -2.866779 -0.000001 -0.000000 0.000000 1.291985 -1.928547 -1.498089 14.800111 0.567468 3.865602 14.242553 -1.341733 -6.660649 19.631939 0.143927 -0.648240 49.854206 -1.075044 -6.002528 0.353027 -1.511149 -0.031937 20.222769 3.684305 2.316629 18.787245 0.000006 -0.000001 10.751610 -0.479867 1.397904 0.000000 0.000003 0.000001 3.273804 0.305947 -0.580111 21.486792 11.830363 2.266131 8.162915 0.000001 0.000000 18.399052 -3.798979 -4.940565 0.000003 0.000000 -0.000001 20.597996 17.626080 -20.660192 -0.509230 -1.028831 31.274645 -19.381449 -0.200745 -3.182260 1.653644 -1.996344 -1.462011 -0.000000 0.000000 0.000002 -22.124512 -5.125265 -8.776778 0.282697 0.953165 27.028141 24.098124 5.548453 -12.730728 -1.436394 1.108357 -2.796030 0.000000 0.000000 -0.000001 
1.727748 91.712051 -2.072857 -0.479775 -4.593900 -1.211303 0.801234 0.701971 1.850680 -0.059502 1.613870 -3.655521 2.196267 0.009012 11.508587 -7.280960 6.440627 8.950009 1.222067 6.931779 -3.502909 -2.448830 7.724905 -12.662976 0.000077 -0.000022 0.000006 0.001617 -0.056744 0.086359 0.701053 -3.778576 -10.577964 -0.704040 3.664647 -10.556697 -9.353292 -8.166172 6.451911 -25.884190 -35.876331 -44.595108 179.307220 -66.087692 -178.601318 10.130549 -9.771867 -31.511253 -5.882101 9.861279 0.702590 -10.936859 -0.360575 7.156197 0.000000 8.774811 -0.000001 -16.769663 18.287209 5.977296 -1.844030 2.498502 -2.507276 -10.163592 4.678940 4.621104 -20.975996 -0.000003 0.000002 -21.226255 2.451693 -3.593994 0.000001 -0.000006 0.000001 -1.362680 2.240797 -0.746323 -21.334898 0.584909 3.008321 -13.821197 -0.000002 0.000002 -23.887131 -0.249078 -0.839481 -60.932701 2.583511 -1.476075 -0.294025 1.679686 0.833255 -14.218194 0.093215 1.300579 -34.212002 -0.287564 0.967169 -20.033180 0.964535 1.212841 -0.000000 -0.000000 -0.000001 -3.440385 0.788233 0.501655 -15.928171 -3.167307 2.999704 -6.338818 -0.000001 0.000001 -18.123415 3.648177 -4.905663 -0.000004 0.000001 -0.000003 4.744951 22.257812 8.145587 49.136272 58.197292 -4.159388 179.827362 55.756638 -179.932907 -1.940226 5.824556 -18.824560 2.243541 -5.255032 -3.180156 14.282878 -0.826594 6.952494 -0.000001 -12.690586 0.000002 16.036860 -17.784412 2.803771 1.665665 -1.955920 -2.878295 4.727792 -4.170583 4.993918 11.020513 0.000003 -0.000001 12.109030 -3.735708 -2.866780 -0.000000 -0.000000 0.000001 1.291985 -1.928548 -1.498088 14.800113 0.567467 3.865603 14.242556 -1.341736 -6.660648 19.631939 0.143926 -0.648243 49.848164 -1.056297 -6.006795 0.353029 -1.511149 -0.031941 20.222769 3.684303 2.316629 18.787249 0.000005 -0.000001 10.751613 -0.479867 1.397903 -0.000001 0.000002 0.000000 3.273803 0.305947 -0.580110 21.486790 11.830360 2.266132 8.162916 0.000001 0.000000 18.399052 -3.798975 -4.940569 0.000002 -0.000002 -0.000001 20.612574 17.756361 -20.384863 -0.502936 -1.054160 30.468496 -19.500721 -0.184284 -2.762203 1.656441 -2.006966 -1.592266 -0.000000 -0.000000 0.000002 -21.941172 -5.139689 -8.768028 0.274593 0.953300 26.831713 23.809740 5.489585 -12.768307 -1.439007 1.079612 -2.940798 0.000000 0.000000 -0.000001 
